<svg width="59" height="30" viewBox="0 0 59 30" fill="none" xmlns="http://www.w3.org/2000/svg">
<path d="M7.65678 29.5689C6.36611 29.5689 5.01678 29.4662 3.60878 29.2609C2.20078 29.0556 1.04211 28.7622 0.132781 28.3809V25.1689C2.30345 26.0489 4.67945 26.4889 7.26078 26.4889C9.78345 26.4889 11.6168 26.0196 12.7608 25.0809C13.9341 24.1422 14.5208 22.6756 14.5208 20.6809C14.5208 18.8036 14.0808 17.3956 13.2008 16.4569C12.3501 15.5182 10.6781 15.0489 8.18478 15.0489H0.000781283V12.5409L0.748781 0.792904H16.1048L15.7528 3.6089H3.78478L3.21278 12.1889H8.53678C11.8514 12.1889 14.2714 12.8929 15.7968 14.3009C17.3514 15.7089 18.1288 17.8356 18.1288 20.6809C18.1288 23.4382 17.2341 25.6089 15.4448 27.1929C13.6848 28.7769 11.0888 29.5689 7.65678 29.5689ZM22.5164 29.1289L32.8124 0.000903606H36.4644L26.1684 29.1289H22.5164ZM48.5201 29.5689C47.2294 29.5689 45.8801 29.4662 44.4721 29.2609C43.0641 29.0556 41.9054 28.7622 40.9961 28.3809V25.1689C43.1667 26.0489 45.5427 26.4889 48.1241 26.4889C50.6467 26.4889 52.4801 26.0196 53.6241 25.0809C54.7974 24.1422 55.3841 22.6756 55.3841 20.6809C55.3841 18.8036 54.9441 17.3956 54.0641 16.4569C53.2134 15.5182 51.5414 15.0489 49.0481 15.0489H40.8641V12.5409L41.6121 0.792904H56.9681L56.6161 3.6089H44.6481L44.0761 12.1889H49.4001C52.7147 12.1889 55.1347 12.8929 56.6601 14.3009C58.2147 15.7089 58.9921 17.8356 58.9921 20.6809C58.9921 23.4382 58.0974 25.6089 56.3081 27.1929C54.5481 28.7769 51.9521 29.5689 48.5201 29.5689Z" fill="white"/>
</svg>
